<svg width="118" height="73" viewBox="0 0 118 73" fill="none" xmlns="http://www.w3.org/2000/svg">
<g clip-path="url(#clip0_1705_222)">
<path d="M113.191 72.9907C114.463 72.9799 115.68 72.4888 116.579 71.6232C117.478 70.7576 117.989 69.5867 118 68.3626V4.63771C117.914 2.21688 115.799 0.181713 113.191 0.00964355H4.80878C2.20094 0.181713 0.0924765 2.21688 0 4.63771V68.3626C0.0924765 70.9674 2.20094 72.9966 4.80878 72.9907H113.191V72.9907Z" fill="#0A0909"/>
<path d="M114.612 71.9865C116.449 72.1631 118.079 70.5798 117.997 68.6981V3.65514C118.079 1.52987 116.449 -0.053426 114.612 0.00138043H4.39582C2.48993 -0.053426 0.859892 1.52987 1.01036 3.65514V68.692C0.973401 69.133 1.03561 69.5765 1.19268 69.9917C1.34975 70.407 1.59791 70.7841 1.91997 71.0969C2.24202 71.4097 2.63027 71.6508 3.05779 71.8033C3.48531 71.9559 3.94187 72.0163 4.39582 71.9804H114.612V71.9865Z" fill="#D5D5D5"/>
<path d="M19.9748 35.2539L3.69897 19.5897L19.9748 3.92547H104.313C110.343 3.79494 113.037 7.50332 113.191 10.3336V35.2539H19.9748ZM19.9748 37.746L3.69897 53.4102L19.9748 69.0804H104.313C110.343 69.2465 113.037 65.5381 113.191 62.6723V37.7519H19.9748V37.746Z" fill="#0A0909"/>
<path d="M97.6551 14.6057L98.771 18.5217L103.95 19.2337L98.771 19.9457L97.6551 23.8618L96.9153 19.9457L91.7366 19.2337L96.9153 18.5217L97.6551 14.6057V13.5376C93.7341 13.5258 90.4173 16.1365 90.257 19.2337C90.4173 22.5683 93.7341 25.1731 97.6551 25.2917C101.921 25.1731 105.238 22.5683 105.053 19.2337C105.238 16.1365 101.921 13.5258 97.6551 13.5376V14.6057V14.6057ZM37.3605 14.2496H39.5799L37.3605 24.9298H35.141L37.3605 14.2496ZM50.3072 14.2496H52.5328L49.9373 24.9298H48.0877L50.3072 14.2496ZM40.6896 14.2496L40.3197 16.0297H43.2851L41.4294 24.9298H43.6489L45.4984 16.0297H48.8275L49.1974 14.2496H40.6896ZM72.1316 24.9298L74.3511 14.2496H76.5705L79.5297 21.7258L81.3793 14.2496H83.5987L81.0094 24.9298H78.7899L75.8307 17.4537L74.3511 24.9298H72.1316ZM88.0376 14.2496H90.6269L85.8181 19.2337L88.7774 24.9298H86.5579L83.2288 19.2337L88.0376 14.2496ZM69.1724 22.7938H65.1034L63.6238 24.9298H61.4043L67.6927 14.2496H69.9122L71.7617 24.9298H69.5423L69.1724 22.7938ZM51.7868 24.9298L54.0062 14.2496H59.5548C61.5831 14.3149 62.3784 15.6499 62.5141 16.7417C62.3538 17.2935 62.1996 18.6344 60.2946 19.2337C61.0653 19.5304 62.0948 20.1475 61.7743 22.0818C61.4964 22.9098 60.9527 23.6316 60.2216 24.1434C59.4904 24.6551 58.6094 24.9305 57.7053 24.9298H51.7868ZM33.6614 17.8097C33.4703 16.1543 31.9968 15.6855 31.0721 15.6796C30.0918 15.6855 27.9463 16.1068 27.0031 19.5897C26.3989 22.954 28.828 23.5533 29.5924 23.5058C30.1719 23.5533 32.2311 23.304 32.9216 21.3757H35.141C34.654 23.1082 32.9031 25.3392 28.8526 25.2917C25.1659 25.1375 24.3891 21.7614 25.1536 19.5897C25.6283 17.0977 26.6332 13.9886 31.8119 13.8936C35.6096 13.9886 35.9486 17.3944 35.8808 17.8097H33.6614V17.8097Z" fill="#D5D5D5"/>
<path d="M68.4327 16.7417L65.8433 21.0137H69.1725L68.4327 16.7417ZM55.4859 18.5217H58.0753C58.9569 18.4861 59.968 18.0648 59.9248 17.4537C60.1406 16.7713 59.8817 16.1483 58.8151 16.0297H55.8558L55.4859 18.5217ZM54.3762 23.1498H56.9656C58.3342 23.1082 59.2097 22.3606 59.185 21.7257C59.5179 21.0197 59.1357 20.2721 58.0753 20.3017H55.116L54.3762 23.1498Z" fill="#0A0909"/>
</g>
<defs>
<clipPath id="clip0_1705_222">
<rect width="118" height="73" fill="white"/>
</clipPath>
</defs>
</svg>
